<svg id="visual" viewBox="0 0 960 100" width="960" height="100" xmlns="http://www.w3.org/2000/svg" xmlns:xlink="http://www.w3.org/1999/xlink" version="1.1"><rect x="0" y="0" width="960" height="100" fill="#081529"></rect><path d="M0 30L9.3 29.8C18.7 29.7 37.3 29.3 56.2 37.2C75 45 94 61 112.8 72.5C131.7 84 150.3 91 169.2 89.8C188 88.7 207 79.3 225.8 79.3C244.7 79.3 263.3 88.7 282.2 92.7C301 96.7 320 95.3 338.8 92C357.7 88.7 376.3 83.3 395.2 76C414 68.7 433 59.3 451.8 58.7C470.7 58 489.3 66 508.2 68.8C527 71.7 546 69.3 564.8 70.3C583.7 71.3 602.3 75.7 621.2 76C640 76.3 659 72.7 677.8 73.5C696.7 74.3 715.3 79.7 734.2 73.7C753 67.7 772 50.3 790.8 48.7C809.7 47 828.3 61 847.2 62C866 63 885 51 903.8 44.3C922.7 37.7 941.3 36.3 950.7 35.7L960 35L960 101L950.7 101C941.3 101 922.7 101 903.8 101C885 101 866 101 847.2 101C828.3 101 809.7 101 790.8 101C772 101 753 101 734.2 101C715.3 101 696.7 101 677.8 101C659 101 640 101 621.2 101C602.3 101 583.7 101 564.8 101C546 101 527 101 508.2 101C489.3 101 470.7 101 451.8 101C433 101 414 101 395.2 101C376.3 101 357.7 101 338.8 101C320 101 301 101 282.2 101C263.3 101 244.7 101 225.8 101C207 101 188 101 169.2 101C150.3 101 131.7 101 112.8 101C94 101 75 101 56.2 101C37.3 101 18.7 101 9.3 101L0 101Z" fill="#ef6d6d"></path><path d="M0 59L9.3 61.7C18.7 64.3 37.3 69.7 56.2 69C75 68.3 94 61.7 112.8 59C131.7 56.3 150.3 57.7 169.2 62C188 66.3 207 73.7 225.8 70.3C244.7 67 263.3 53 282.2 45.8C301 38.7 320 38.3 338.8 43C357.7 47.7 376.3 57.3 395.2 60.3C414 63.3 433 59.7 451.8 63.7C470.7 67.7 489.3 79.3 508.2 81C527 82.7 546 74.3 564.8 73.8C583.7 73.3 602.3 80.7 621.2 79.7C640 78.7 659 69.3 677.8 68.7C696.7 68 715.3 76 734.2 73.2C753 70.3 772 56.7 790.8 58.5C809.7 60.3 828.3 77.7 847.2 84C866 90.3 885 85.7 903.8 84.7C922.7 83.7 941.3 86.3 950.7 87.7L960 89L960 101L950.7 101C941.3 101 922.7 101 903.8 101C885 101 866 101 847.2 101C828.3 101 809.7 101 790.8 101C772 101 753 101 734.2 101C715.3 101 696.7 101 677.8 101C659 101 640 101 621.2 101C602.3 101 583.7 101 564.8 101C546 101 527 101 508.2 101C489.3 101 470.7 101 451.8 101C433 101 414 101 395.2 101C376.3 101 357.7 101 338.8 101C320 101 301 101 282.2 101C263.3 101 244.7 101 225.8 101C207 101 188 101 169.2 101C150.3 101 131.7 101 112.8 101C94 101 75 101 56.2 101C37.3 101 18.7 101 9.3 101L0 101Z" fill="#f3739a"></path><path d="M0 74L9.3 72.8C18.7 71.7 37.3 69.3 56.2 65.3C75 61.3 94 55.7 112.8 57.8C131.7 60 150.3 70 169.2 72.5C188 75 207 70 225.8 67C244.7 64 263.3 63 282.2 67.3C301 71.7 320 81.3 338.8 84.3C357.7 87.3 376.3 83.7 395.2 78.8C414 74 433 68 451.8 66C470.7 64 489.3 66 508.2 68C527 70 546 72 564.8 75.5C583.7 79 602.3 84 621.2 85.8C640 87.7 659 86.3 677.8 85.8C696.7 85.3 715.3 85.7 734.2 83C753 80.3 772 74.7 790.8 73.5C809.7 72.3 828.3 75.7 847.2 72.3C866 69 885 59 903.8 62.2C922.7 65.3 941.3 81.7 950.7 89.8L960 98L960 101L950.7 101C941.3 101 922.7 101 903.8 101C885 101 866 101 847.2 101C828.3 101 809.7 101 790.8 101C772 101 753 101 734.2 101C715.3 101 696.7 101 677.8 101C659 101 640 101 621.2 101C602.3 101 583.7 101 564.8 101C546 101 527 101 508.2 101C489.3 101 470.7 101 451.8 101C433 101 414 101 395.2 101C376.3 101 357.7 101 338.8 101C320 101 301 101 282.2 101C263.3 101 244.7 101 225.8 101C207 101 188 101 169.2 101C150.3 101 131.7 101 112.8 101C94 101 75 101 56.2 101C37.3 101 18.7 101 9.3 101L0 101Z" fill="#e683c4"></path><path d="M0 64L9.3 67.7C18.7 71.3 37.3 78.7 56.2 80.7C75 82.7 94 79.3 112.8 75.5C131.7 71.7 150.3 67.3 169.2 66.7C188 66 207 69 225.8 68C244.7 67 263.3 62 282.2 64.2C301 66.3 320 75.7 338.8 78.3C357.7 81 376.3 77 395.2 78.2C414 79.3 433 85.7 451.8 88.8C470.7 92 489.3 92 508.2 86.5C527 81 546 70 564.8 65.3C583.7 60.7 602.3 62.3 621.2 68.5C640 74.7 659 85.3 677.8 86.7C696.7 88 715.3 80 734.2 75.5C753 71 772 70 790.8 73.5C809.7 77 828.3 85 847.2 84C866 83 885 73 903.8 68.7C922.7 64.3 941.3 65.7 950.7 66.3L960 67L960 101L950.7 101C941.3 101 922.7 101 903.8 101C885 101 866 101 847.2 101C828.3 101 809.7 101 790.8 101C772 101 753 101 734.2 101C715.3 101 696.7 101 677.8 101C659 101 640 101 621.2 101C602.3 101 583.7 101 564.8 101C546 101 527 101 508.2 101C489.3 101 470.7 101 451.8 101C433 101 414 101 395.2 101C376.3 101 357.7 101 338.8 101C320 101 301 101 282.2 101C263.3 101 244.7 101 225.8 101C207 101 188 101 169.2 101C150.3 101 131.7 101 112.8 101C94 101 75 101 56.2 101C37.3 101 18.7 101 9.3 101L0 101Z" fill="#cc97e6"></path><path d="M0 72L9.3 74C18.7 76 37.3 80 56.2 81.7C75 83.3 94 82.7 112.8 80C131.7 77.3 150.3 72.7 169.2 72.7C188 72.7 207 77.3 225.8 79.3C244.7 81.3 263.3 80.7 282.2 81.2C301 81.7 320 83.3 338.8 83C357.7 82.7 376.3 80.3 395.2 79.3C414 78.3 433 78.7 451.8 77.2C470.7 75.7 489.3 72.3 508.2 73.2C527 74 546 79 564.8 80.8C583.7 82.7 602.3 81.3 621.2 82C640 82.7 659 85.3 677.8 84.7C696.7 84 715.3 80 734.2 79.8C753 79.7 772 83.3 790.8 83.7C809.7 84 828.3 81 847.2 82.5C866 84 885 90 903.8 93C922.7 96 941.3 96 950.7 96L960 96L960 101L950.7 101C941.3 101 922.7 101 903.8 101C885 101 866 101 847.2 101C828.3 101 809.7 101 790.8 101C772 101 753 101 734.2 101C715.3 101 696.7 101 677.8 101C659 101 640 101 621.2 101C602.3 101 583.7 101 564.8 101C546 101 527 101 508.2 101C489.3 101 470.7 101 451.8 101C433 101 414 101 395.2 101C376.3 101 357.7 101 338.8 101C320 101 301 101 282.2 101C263.3 101 244.7 101 225.8 101C207 101 188 101 169.2 101C150.3 101 131.7 101 112.8 101C94 101 75 101 56.2 101C37.3 101 18.7 101 9.3 101L0 101Z" fill="#a8abfc"></path><path d="M0 76L9.3 78.7C18.7 81.3 37.3 86.7 56.2 86.8C75 87 94 82 112.8 81.7C131.7 81.3 150.3 85.7 169.2 89.3C188 93 207 96 225.8 95.5C244.7 95 263.3 91 282.2 89.3C301 87.7 320 88.3 338.8 86.7C357.7 85 376.3 81 395.2 78.7C414 76.3 433 75.7 451.8 76.8C470.7 78 489.3 81 508.2 84.2C527 87.3 546 90.7 564.8 91.8C583.7 93 602.3 92 621.2 92.7C640 93.3 659 95.7 677.8 95.2C696.7 94.7 715.3 91.3 734.2 90.3C753 89.3 772 90.7 790.8 92C809.7 93.3 828.3 94.7 847.2 94.8C866 95 885 94 903.8 92.8C922.7 91.7 941.3 90.3 950.7 89.7L960 89L960 101L950.7 101C941.3 101 922.7 101 903.8 101C885 101 866 101 847.2 101C828.3 101 809.7 101 790.8 101C772 101 753 101 734.2 101C715.3 101 696.7 101 677.8 101C659 101 640 101 621.2 101C602.3 101 583.7 101 564.8 101C546 101 527 101 508.2 101C489.3 101 470.7 101 451.8 101C433 101 414 101 395.2 101C376.3 101 357.7 101 338.8 101C320 101 301 101 282.2 101C263.3 101 244.7 101 225.8 101C207 101 188 101 169.2 101C150.3 101 131.7 101 112.8 101C94 101 75 101 56.2 101C37.3 101 18.7 101 9.3 101L0 101Z" fill="#82bdff"></path><path d="M0 87L9.3 86.2C18.7 85.3 37.3 83.7 56.2 84.8C75 86 94 90 112.8 91.2C131.7 92.3 150.3 90.7 169.2 91C188 91.3 207 93.7 225.8 94.8C244.7 96 263.3 96 282.2 94C301 92 320 88 338.8 86.8C357.7 85.7 376.3 87.3 395.2 89.5C414 91.7 433 94.3 451.8 93.5C470.7 92.7 489.3 88.3 508.2 88.3C527 88.3 546 92.7 564.8 94.2C583.7 95.7 602.3 94.3 621.2 94.2C640 94 659 95 677.8 93.5C696.7 92 715.3 88 734.2 86.3C753 84.7 772 85.3 790.8 85.2C809.7 85 828.3 84 847.2 83.3C866 82.7 885 82.3 903.8 83.7C922.7 85 941.3 88 950.7 89.5L960 91L960 101L950.7 101C941.3 101 922.7 101 903.8 101C885 101 866 101 847.2 101C828.3 101 809.7 101 790.8 101C772 101 753 101 734.2 101C715.3 101 696.7 101 677.8 101C659 101 640 101 621.2 101C602.3 101 583.7 101 564.8 101C546 101 527 101 508.2 101C489.3 101 470.7 101 451.8 101C433 101 414 101 395.2 101C376.3 101 357.7 101 338.8 101C320 101 301 101 282.2 101C263.3 101 244.7 101 225.8 101C207 101 188 101 169.2 101C150.3 101 131.7 101 112.8 101C94 101 75 101 56.2 101C37.3 101 18.7 101 9.3 101L0 101Z" fill="#66ccff"></path></svg>