<svg id="visual" viewBox="0 0 960 100" width="960" height="100" xmlns="http://www.w3.org/2000/svg" xmlns:xlink="http://www.w3.org/1999/xlink" version="1.1"><rect x="0" y="0" width="960" height="100" fill="#081529"></rect><path d="M0 78L8.8 69.5C17.7 61 35.3 44 53.2 43.7C71 43.3 89 59.7 106.8 67.7C124.7 75.7 142.3 75.3 160 70C177.7 64.7 195.3 54.3 213.2 50.8C231 47.3 249 50.7 266.8 54.5C284.7 58.3 302.3 62.7 320 63C337.7 63.3 355.3 59.7 373.2 58.2C391 56.7 409 57.3 426.8 55.5C444.7 53.7 462.3 49.3 480 45.8C497.7 42.3 515.3 39.7 533.2 45.2C551 50.7 569 64.3 586.8 62.2C604.7 60 622.3 42 640 41.7C657.7 41.3 675.3 58.7 693.2 63.7C711 68.7 729 61.3 746.8 53.8C764.7 46.3 782.3 38.7 800 35.5C817.7 32.3 835.3 33.7 853.2 39.3C871 45 889 55 906.8 56.2C924.7 57.3 942.3 49.7 951.2 45.8L960 42L960 0L951.2 0C942.3 0 924.7 0 906.8 0C889 0 871 0 853.2 0C835.3 0 817.7 0 800 0C782.3 0 764.7 0 746.8 0C729 0 711 0 693.2 0C675.3 0 657.7 0 640 0C622.3 0 604.7 0 586.8 0C569 0 551 0 533.2 0C515.3 0 497.7 0 480 0C462.3 0 444.7 0 426.8 0C409 0 391 0 373.2 0C355.3 0 337.7 0 320 0C302.3 0 284.7 0 266.8 0C249 0 231 0 213.2 0C195.3 0 177.7 0 160 0C142.3 0 124.7 0 106.8 0C89 0 71 0 53.2 0C35.3 0 17.7 0 8.8 0L0 0Z" fill="#7246b8"></path><path d="M0 32L8.8 31.3C17.7 30.7 35.3 29.3 53.2 32.5C71 35.7 89 43.3 106.8 42.5C124.7 41.7 142.3 32.3 160 32.5C177.7 32.7 195.3 42.3 213.2 49C231 55.7 249 59.3 266.8 60.7C284.7 62 302.3 61 320 58.3C337.7 55.7 355.3 51.3 373.2 44C391 36.7 409 26.3 426.8 24.8C444.7 23.3 462.3 30.7 480 36.7C497.7 42.7 515.3 47.3 533.2 48.7C551 50 569 48 586.8 45C604.7 42 622.3 38 640 40C657.7 42 675.3 50 693.2 49.2C711 48.3 729 38.7 746.8 38.5C764.7 38.3 782.3 47.7 800 50.2C817.7 52.7 835.3 48.3 853.2 45.2C871 42 889 40 906.8 40C924.7 40 942.3 42 951.2 43L960 44L960 0L951.2 0C942.3 0 924.7 0 906.8 0C889 0 871 0 853.2 0C835.3 0 817.7 0 800 0C782.3 0 764.7 0 746.8 0C729 0 711 0 693.2 0C675.3 0 657.7 0 640 0C622.3 0 604.7 0 586.8 0C569 0 551 0 533.2 0C515.3 0 497.7 0 480 0C462.3 0 444.7 0 426.8 0C409 0 391 0 373.2 0C355.3 0 337.7 0 320 0C302.3 0 284.7 0 266.8 0C249 0 231 0 213.2 0C195.3 0 177.7 0 160 0C142.3 0 124.7 0 106.8 0C89 0 71 0 53.2 0C35.3 0 17.7 0 8.8 0L0 0Z" fill="#537ade"></path><path d="M0 45L8.8 44.7C17.7 44.3 35.3 43.7 53.2 39.8C71 36 89 29 106.8 26C124.7 23 142.3 24 160 21.8C177.7 19.7 195.3 14.3 213.2 13.8C231 13.3 249 17.7 266.8 18.3C284.7 19 302.3 16 320 13.8C337.7 11.7 355.3 10.3 373.2 14.5C391 18.7 409 28.3 426.8 32.5C444.7 36.7 462.3 35.3 480 34.7C497.7 34 515.3 34 533.2 33.5C551 33 569 32 586.8 29C604.7 26 622.3 21 640 18.3C657.7 15.7 675.3 15.3 693.2 15.3C711 15.3 729 15.7 746.8 20.8C764.7 26 782.3 36 800 34.7C817.7 33.3 835.3 20.7 853.2 18.2C871 15.7 889 23.3 906.8 26.8C924.7 30.3 942.3 29.7 951.2 29.3L960 29L960 0L951.2 0C942.3 0 924.7 0 906.8 0C889 0 871 0 853.2 0C835.3 0 817.7 0 800 0C782.3 0 764.7 0 746.8 0C729 0 711 0 693.2 0C675.3 0 657.7 0 640 0C622.3 0 604.7 0 586.8 0C569 0 551 0 533.2 0C515.3 0 497.7 0 480 0C462.3 0 444.7 0 426.8 0C409 0 391 0 373.2 0C355.3 0 337.7 0 320 0C302.3 0 284.7 0 266.8 0C249 0 231 0 213.2 0C195.3 0 177.7 0 160 0C142.3 0 124.7 0 106.8 0C89 0 71 0 53.2 0C35.3 0 17.7 0 8.8 0L0 0Z" fill="#45a5f4"></path><path d="M0 30L8.8 25.7C17.7 21.3 35.3 12.7 53.2 8.5C71 4.3 89 4.7 106.8 8.2C124.7 11.7 142.3 18.3 160 18.8C177.7 19.3 195.3 13.7 213.2 10C231 6.3 249 4.7 266.8 6.7C284.7 8.7 302.3 14.3 320 16.5C337.7 18.7 355.3 17.3 373.2 14.7C391 12 409 8 426.8 7.7C444.7 7.3 462.3 10.7 480 12.5C497.7 14.3 515.3 14.7 533.2 16.5C551 18.3 569 21.7 586.8 23C604.7 24.3 622.3 23.7 640 20C657.7 16.3 675.3 9.7 693.2 7C711 4.3 729 5.7 746.8 5.5C764.7 5.3 782.3 3.7 800 5.2C817.7 6.7 835.3 11.3 853.2 11C871 10.7 889 5.3 906.8 6.7C924.7 8 942.3 16 951.2 20L960 24L960 0L951.2 0C942.3 0 924.7 0 906.8 0C889 0 871 0 853.2 0C835.3 0 817.7 0 800 0C782.3 0 764.7 0 746.8 0C729 0 711 0 693.2 0C675.3 0 657.7 0 640 0C622.3 0 604.7 0 586.8 0C569 0 551 0 533.2 0C515.3 0 497.7 0 480 0C462.3 0 444.7 0 426.8 0C409 0 391 0 373.2 0C355.3 0 337.7 0 320 0C302.3 0 284.7 0 266.8 0C249 0 231 0 213.2 0C195.3 0 177.7 0 160 0C142.3 0 124.7 0 106.8 0C89 0 71 0 53.2 0C35.3 0 17.7 0 8.8 0L0 0Z" fill="#66ccff"></path></svg>