<svg id="visual" viewBox="0 0 960 150" width="960" height="150" xmlns="http://www.w3.org/2000/svg" xmlns:xlink="http://www.w3.org/1999/xlink" version="1.1"><rect x="0" y="0" width="960" height="150" fill="#081529"></rect><path d="M0 128L8.8 123.3C17.7 118.7 35.3 109.3 53.2 97.5C71 85.7 89 71.3 106.8 76.5C124.7 81.7 142.3 106.3 160 105.8C177.7 105.3 195.3 79.7 213.2 75C231 70.3 249 86.7 266.8 92C284.7 97.3 302.3 91.7 320 83.7C337.7 75.7 355.3 65.3 373.2 67.5C391 69.7 409 84.3 426.8 85.3C444.7 86.3 462.3 73.7 480 67C497.7 60.3 515.3 59.7 533.2 68.2C551 76.7 569 94.3 586.8 103.5C604.7 112.7 622.3 113.3 640 111.7C657.7 110 675.3 106 693.2 96.3C711 86.7 729 71.3 746.8 62.7C764.7 54 782.3 52 800 63.2C817.7 74.3 835.3 98.7 853.2 105.3C871 112 889 101 906.8 99.3C924.7 97.7 942.3 105.3 951.2 109.2L960 113L960 0L951.2 0C942.3 0 924.7 0 906.8 0C889 0 871 0 853.2 0C835.3 0 817.7 0 800 0C782.3 0 764.7 0 746.8 0C729 0 711 0 693.2 0C675.3 0 657.7 0 640 0C622.3 0 604.7 0 586.8 0C569 0 551 0 533.2 0C515.3 0 497.7 0 480 0C462.3 0 444.7 0 426.8 0C409 0 391 0 373.2 0C355.3 0 337.7 0 320 0C302.3 0 284.7 0 266.8 0C249 0 231 0 213.2 0C195.3 0 177.7 0 160 0C142.3 0 124.7 0 106.8 0C89 0 71 0 53.2 0C35.3 0 17.7 0 8.8 0L0 0Z" fill="#66ccff"></path><path d="M0 79L8.8 81.3C17.7 83.7 35.3 88.3 53.2 90.7C71 93 89 93 106.8 83.2C124.7 73.3 142.3 53.7 160 46.7C177.7 39.7 195.3 45.3 213.2 53.2C231 61 249 71 266.8 70C284.7 69 302.3 57 320 50.7C337.7 44.3 355.3 43.7 373.2 47.2C391 50.7 409 58.3 426.8 66.2C444.7 74 462.3 82 480 84C497.7 86 515.3 82 533.2 82.7C551 83.3 569 88.7 586.8 86.3C604.7 84 622.3 74 640 73.5C657.7 73 675.3 82 693.2 81.5C711 81 729 71 746.8 68.5C764.7 66 782.3 71 800 77.8C817.7 84.7 835.3 93.3 853.2 89.7C871 86 889 70 906.8 66.3C924.7 62.7 942.3 71.3 951.2 75.7L960 80L960 0L951.2 0C942.3 0 924.7 0 906.8 0C889 0 871 0 853.2 0C835.3 0 817.7 0 800 0C782.3 0 764.7 0 746.8 0C729 0 711 0 693.2 0C675.3 0 657.7 0 640 0C622.3 0 604.7 0 586.8 0C569 0 551 0 533.2 0C515.3 0 497.7 0 480 0C462.3 0 444.7 0 426.8 0C409 0 391 0 373.2 0C355.3 0 337.7 0 320 0C302.3 0 284.7 0 266.8 0C249 0 231 0 213.2 0C195.3 0 177.7 0 160 0C142.3 0 124.7 0 106.8 0C89 0 71 0 53.2 0C35.3 0 17.7 0 8.8 0L0 0Z" fill="#45a5f4"></path><path d="M0 69L8.8 70.7C17.7 72.3 35.3 75.7 53.2 76.7C71 77.7 89 76.3 106.8 75.2C124.7 74 142.3 73 160 66.2C177.7 59.3 195.3 46.7 213.2 41.8C231 37 249 40 266.8 43.7C284.7 47.3 302.3 51.7 320 47.3C337.7 43 355.3 30 373.2 28.8C391 27.7 409 38.3 426.8 47.3C444.7 56.3 462.3 63.7 480 58.8C497.7 54 515.3 37 533.2 33.2C551 29.3 569 38.7 586.8 45.2C604.7 51.7 622.3 55.3 640 58.7C657.7 62 675.3 65 693.2 57.8C711 50.7 729 33.3 746.8 26.2C764.7 19 782.3 22 800 25.8C817.7 29.7 835.3 34.3 853.2 35.7C871 37 889 35 906.8 38.8C924.7 42.7 942.3 52.3 951.2 57.2L960 62L960 0L951.2 0C942.3 0 924.7 0 906.8 0C889 0 871 0 853.2 0C835.3 0 817.7 0 800 0C782.3 0 764.7 0 746.8 0C729 0 711 0 693.2 0C675.3 0 657.7 0 640 0C622.3 0 604.7 0 586.8 0C569 0 551 0 533.2 0C515.3 0 497.7 0 480 0C462.3 0 444.7 0 426.8 0C409 0 391 0 373.2 0C355.3 0 337.7 0 320 0C302.3 0 284.7 0 266.8 0C249 0 231 0 213.2 0C195.3 0 177.7 0 160 0C142.3 0 124.7 0 106.8 0C89 0 71 0 53.2 0C35.3 0 17.7 0 8.8 0L0 0Z" fill="#537ade"></path><path d="M0 44L8.8 37.3C17.7 30.7 35.3 17.3 53.2 16.2C71 15 89 26 106.8 33.2C124.7 40.3 142.3 43.7 160 39.5C177.7 35.3 195.3 23.7 213.2 21.7C231 19.7 249 27.3 266.8 29.7C284.7 32 302.3 29 320 30.5C337.7 32 355.3 38 373.2 35.7C391 33.3 409 22.7 426.8 18.8C444.7 15 462.3 18 480 24C497.7 30 515.3 39 533.2 43.7C551 48.3 569 48.7 586.8 45C604.7 41.3 622.3 33.7 640 27.7C657.7 21.7 675.3 17.3 693.2 15.7C711 14 729 15 746.8 17.7C764.7 20.3 782.3 24.7 800 25.7C817.7 26.7 835.3 24.3 853.2 26.5C871 28.7 889 35.3 906.8 35C924.7 34.7 942.3 27.3 951.2 23.7L960 20L960 0L951.2 0C942.3 0 924.7 0 906.8 0C889 0 871 0 853.2 0C835.3 0 817.7 0 800 0C782.3 0 764.7 0 746.8 0C729 0 711 0 693.2 0C675.3 0 657.7 0 640 0C622.3 0 604.7 0 586.8 0C569 0 551 0 533.2 0C515.3 0 497.7 0 480 0C462.3 0 444.7 0 426.8 0C409 0 391 0 373.2 0C355.3 0 337.7 0 320 0C302.3 0 284.7 0 266.8 0C249 0 231 0 213.2 0C195.3 0 177.7 0 160 0C142.3 0 124.7 0 106.8 0C89 0 71 0 53.2 0C35.3 0 17.7 0 8.8 0L0 0Z" fill="#7246b8"></path></svg>