<svg id="visual" viewBox="0 0 960 100" width="960" height="100" xmlns="http://www.w3.org/2000/svg" xmlns:xlink="http://www.w3.org/1999/xlink" version="1.1"><rect x="0" y="0" width="960" height="100" fill="#081529"></rect><path d="M0 68L9.3 68.2C18.7 68.3 37.3 68.7 56.2 60.8C75 53 94 37 112.8 25.5C131.7 14 150.3 7 169.2 8.2C188 9.3 207 18.7 225.8 18.7C244.7 18.7 263.3 9.3 282.2 5.3C301 1.3 320 2.7 338.8 6C357.7 9.3 376.3 14.7 395.2 22C414 29.3 433 38.7 451.8 39.3C470.7 40 489.3 32 508.2 29.2C527 26.3 546 28.7 564.8 27.7C583.7 26.7 602.3 22.3 621.2 22C640 21.7 659 25.3 677.8 24.5C696.7 23.7 715.3 18.3 734.2 24.3C753 30.3 772 47.7 790.8 49.3C809.7 51 828.3 37 847.2 36C866 35 885 47 903.8 53.7C922.7 60.3 941.3 61.7 950.7 62.3L960 63L960 0L950.7 0C941.3 0 922.7 0 903.8 0C885 0 866 0 847.2 0C828.3 0 809.7 0 790.8 0C772 0 753 0 734.2 0C715.3 0 696.7 0 677.8 0C659 0 640 0 621.2 0C602.3 0 583.7 0 564.8 0C546 0 527 0 508.2 0C489.3 0 470.7 0 451.8 0C433 0 414 0 395.2 0C376.3 0 357.7 0 338.8 0C320 0 301 0 282.2 0C263.3 0 244.7 0 225.8 0C207 0 188 0 169.2 0C150.3 0 131.7 0 112.8 0C94 0 75 0 56.2 0C37.3 0 18.7 0 9.3 0L0 0Z" fill="#7246b8"></path><path d="M0 39L9.3 36.3C18.7 33.7 37.3 28.3 56.2 29C75 29.7 94 36.3 112.8 39C131.7 41.7 150.3 40.3 169.2 36C188 31.7 207 24.3 225.8 27.7C244.7 31 263.3 45 282.2 52.2C301 59.3 320 59.7 338.8 55C357.7 50.3 376.3 40.7 395.2 37.7C414 34.7 433 38.3 451.8 34.3C470.7 30.3 489.3 18.7 508.2 17C527 15.3 546 23.7 564.8 24.2C583.7 24.7 602.3 17.3 621.2 18.3C640 19.3 659 28.7 677.8 29.3C696.7 30 715.3 22 734.2 24.8C753 27.7 772 41.3 790.8 39.5C809.7 37.7 828.3 20.3 847.2 14C866 7.7 885 12.3 903.8 13.3C922.7 14.3 941.3 11.7 950.7 10.3L960 9L960 0L950.7 0C941.3 0 922.7 0 903.8 0C885 0 866 0 847.2 0C828.3 0 809.7 0 790.8 0C772 0 753 0 734.2 0C715.3 0 696.7 0 677.8 0C659 0 640 0 621.2 0C602.3 0 583.7 0 564.8 0C546 0 527 0 508.2 0C489.3 0 470.7 0 451.8 0C433 0 414 0 395.2 0C376.3 0 357.7 0 338.8 0C320 0 301 0 282.2 0C263.3 0 244.7 0 225.8 0C207 0 188 0 169.2 0C150.3 0 131.7 0 112.8 0C94 0 75 0 56.2 0C37.3 0 18.7 0 9.3 0L0 0Z" fill="#6361cd"></path><path d="M0 24L9.3 25.2C18.7 26.3 37.3 28.7 56.2 32.7C75 36.7 94 42.3 112.8 40.2C131.7 38 150.3 28 169.2 25.5C188 23 207 28 225.8 31C244.7 34 263.3 35 282.2 30.7C301 26.3 320 16.7 338.8 13.7C357.7 10.7 376.3 14.3 395.2 19.2C414 24 433 30 451.8 32C470.7 34 489.3 32 508.2 30C527 28 546 26 564.8 22.5C583.7 19 602.3 14 621.2 12.2C640 10.3 659 11.7 677.8 12.2C696.7 12.7 715.3 12.3 734.2 15C753 17.7 772 23.3 790.8 24.5C809.7 25.7 828.3 22.3 847.2 25.7C866 29 885 39 903.8 35.8C922.7 32.7 941.3 16.3 950.7 8.2L960 0L960 0L950.7 0C941.3 0 922.7 0 903.8 0C885 0 866 0 847.2 0C828.3 0 809.7 0 790.8 0C772 0 753 0 734.2 0C715.3 0 696.7 0 677.8 0C659 0 640 0 621.2 0C602.3 0 583.7 0 564.8 0C546 0 527 0 508.2 0C489.3 0 470.7 0 451.8 0C433 0 414 0 395.2 0C376.3 0 357.7 0 338.8 0C320 0 301 0 282.2 0C263.3 0 244.7 0 225.8 0C207 0 188 0 169.2 0C150.3 0 131.7 0 112.8 0C94 0 75 0 56.2 0C37.3 0 18.7 0 9.3 0L0 0Z" fill="#537ade"></path><path d="M0 34L9.3 30.3C18.7 26.7 37.3 19.3 56.2 17.3C75 15.3 94 18.7 112.8 22.5C131.7 26.3 150.3 30.7 169.2 31.3C188 32 207 29 225.8 30C244.7 31 263.3 36 282.2 33.8C301 31.7 320 22.3 338.8 19.7C357.7 17 376.3 21 395.2 19.8C414 18.7 433 12.3 451.8 9.2C470.7 6 489.3 6 508.2 11.5C527 17 546 28 564.8 32.7C583.7 37.3 602.3 35.7 621.2 29.5C640 23.3 659 12.7 677.8 11.3C696.7 10 715.3 18 734.2 22.5C753 27 772 28 790.8 24.5C809.7 21 828.3 13 847.2 14C866 15 885 25 903.8 29.3C922.7 33.7 941.3 32.3 950.7 31.7L960 31L960 0L950.7 0C941.3 0 922.7 0 903.8 0C885 0 866 0 847.2 0C828.3 0 809.7 0 790.8 0C772 0 753 0 734.2 0C715.3 0 696.7 0 677.8 0C659 0 640 0 621.2 0C602.3 0 583.7 0 564.8 0C546 0 527 0 508.2 0C489.3 0 470.7 0 451.8 0C433 0 414 0 395.2 0C376.3 0 357.7 0 338.8 0C320 0 301 0 282.2 0C263.3 0 244.7 0 225.8 0C207 0 188 0 169.2 0C150.3 0 131.7 0 112.8 0C94 0 75 0 56.2 0C37.3 0 18.7 0 9.3 0L0 0Z" fill="#4790eb"></path><path d="M0 26L9.3 24C18.7 22 37.3 18 56.2 16.3C75 14.7 94 15.3 112.8 18C131.7 20.7 150.3 25.3 169.2 25.3C188 25.3 207 20.7 225.8 18.7C244.7 16.7 263.3 17.3 282.2 16.8C301 16.3 320 14.7 338.8 15C357.7 15.3 376.3 17.7 395.2 18.7C414 19.7 433 19.3 451.8 20.8C470.7 22.3 489.3 25.7 508.2 24.8C527 24 546 19 564.8 17.2C583.7 15.3 602.3 16.7 621.2 16C640 15.3 659 12.7 677.8 13.3C696.7 14 715.3 18 734.2 18.2C753 18.3 772 14.7 790.8 14.3C809.7 14 828.3 17 847.2 15.5C866 14 885 8 903.8 5C922.7 2 941.3 2 950.7 2L960 2L960 0L950.7 0C941.3 0 922.7 0 903.8 0C885 0 866 0 847.2 0C828.3 0 809.7 0 790.8 0C772 0 753 0 734.2 0C715.3 0 696.7 0 677.8 0C659 0 640 0 621.2 0C602.3 0 583.7 0 564.8 0C546 0 527 0 508.2 0C489.3 0 470.7 0 451.8 0C433 0 414 0 395.2 0C376.3 0 357.7 0 338.8 0C320 0 301 0 282.2 0C263.3 0 244.7 0 225.8 0C207 0 188 0 169.2 0C150.3 0 131.7 0 112.8 0C94 0 75 0 56.2 0C37.3 0 18.7 0 9.3 0L0 0Z" fill="#45a5f4"></path><path d="M0 22L9.3 19.3C18.7 16.7 37.3 11.3 56.2 11.2C75 11 94 16 112.8 16.3C131.7 16.7 150.3 12.3 169.2 8.8C188 5.3 207 2.7 225.8 3.2C244.7 3.7 263.3 7.3 282.2 8.8C301 10.3 320 9.7 338.8 11.3C357.7 13 376.3 17 395.2 19.3C414 21.7 433 22.3 451.8 21.2C470.7 20 489.3 17 508.2 13.8C527 10.7 546 7.3 564.8 6.2C583.7 5 602.3 6 621.2 5.3C640 4.7 659 2.3 677.8 2.8C696.7 3.3 715.3 6.7 734.2 7.7C753 8.7 772 7.3 790.8 6C809.7 4.7 828.3 3.3 847.2 3.2C866 3 885 4 903.8 5.2C922.7 6.3 941.3 7.7 950.7 8.3L960 9L960 0L950.7 0C941.3 0 922.7 0 903.8 0C885 0 866 0 847.2 0C828.3 0 809.7 0 790.8 0C772 0 753 0 734.2 0C715.3 0 696.7 0 677.8 0C659 0 640 0 621.2 0C602.3 0 583.7 0 564.8 0C546 0 527 0 508.2 0C489.3 0 470.7 0 451.8 0C433 0 414 0 395.2 0C376.3 0 357.7 0 338.8 0C320 0 301 0 282.2 0C263.3 0 244.7 0 225.8 0C207 0 188 0 169.2 0C150.3 0 131.7 0 112.8 0C94 0 75 0 56.2 0C37.3 0 18.7 0 9.3 0L0 0Z" fill="#50b9fa"></path><path d="M0 11L9.3 11.8C18.7 12.7 37.3 14.3 56.2 13.2C75 12 94 8 112.8 6.8C131.7 5.7 150.3 7.3 169.2 7C188 6.7 207 4.3 225.8 3.2C244.7 2 263.3 2 282.2 4C301 6 320 10 338.8 11.2C357.7 12.3 376.3 10.7 395.2 8.5C414 6.3 433 3.7 451.8 4.5C470.7 5.3 489.3 9.7 508.2 9.7C527 9.7 546 5.3 564.8 3.8C583.7 2.3 602.3 3.7 621.2 3.8C640 4 659 3 677.8 4.5C696.7 6 715.3 10 734.2 11.7C753 13.3 772 12.7 790.8 12.8C809.7 13 828.3 14 847.2 14.7C866 15.3 885 15.7 903.8 14.3C922.7 13 941.3 10 950.7 8.5L960 7L960 0L950.7 0C941.3 0 922.7 0 903.8 0C885 0 866 0 847.2 0C828.3 0 809.7 0 790.8 0C772 0 753 0 734.2 0C715.3 0 696.7 0 677.8 0C659 0 640 0 621.2 0C602.3 0 583.7 0 564.8 0C546 0 527 0 508.2 0C489.3 0 470.7 0 451.8 0C433 0 414 0 395.2 0C376.3 0 357.7 0 338.8 0C320 0 301 0 282.2 0C263.3 0 244.7 0 225.8 0C207 0 188 0 169.2 0C150.3 0 131.7 0 112.8 0C94 0 75 0 56.2 0C37.3 0 18.7 0 9.3 0L0 0Z" fill="#66ccff"></path></svg>