<svg id="visual" viewBox="0 0 960 100" width="960" height="100" xmlns="http://www.w3.org/2000/svg" xmlns:xlink="http://www.w3.org/1999/xlink" version="1.1"><rect x="0" y="0" width="960" height="100" fill="#081529"></rect><path d="M0 20L8.8 28.5C17.7 37 35.3 54 53.2 54.3C71 54.7 89 38.3 106.8 30.3C124.7 22.3 142.3 22.7 160 28C177.7 33.3 195.3 43.7 213.2 47.2C231 50.7 249 47.3 266.8 43.5C284.7 39.7 302.3 35.3 320 35C337.7 34.7 355.3 38.3 373.2 39.8C391 41.3 409 40.7 426.8 42.5C444.7 44.3 462.3 48.7 480 52.2C497.7 55.7 515.3 58.3 533.2 52.8C551 47.3 569 33.7 586.8 35.8C604.7 38 622.3 56 640 56.3C657.7 56.7 675.3 39.3 693.2 34.3C711 29.3 729 36.7 746.8 44.2C764.7 51.7 782.3 59.3 800 62.5C817.7 65.7 835.3 64.3 853.2 58.7C871 53 889 43 906.8 41.8C924.7 40.7 942.3 48.3 951.2 52.2L960 56L960 101L951.2 101C942.3 101 924.7 101 906.8 101C889 101 871 101 853.2 101C835.3 101 817.7 101 800 101C782.3 101 764.7 101 746.8 101C729 101 711 101 693.2 101C675.3 101 657.7 101 640 101C622.3 101 604.7 101 586.8 101C569 101 551 101 533.2 101C515.3 101 497.7 101 480 101C462.3 101 444.7 101 426.8 101C409 101 391 101 373.2 101C355.3 101 337.7 101 320 101C302.3 101 284.7 101 266.8 101C249 101 231 101 213.2 101C195.3 101 177.7 101 160 101C142.3 101 124.7 101 106.8 101C89 101 71 101 53.2 101C35.3 101 17.7 101 8.8 101L0 101Z" fill="#7246b8"></path><path d="M0 66L8.8 66.7C17.7 67.3 35.3 68.7 53.2 65.5C71 62.3 89 54.7 106.8 55.5C124.7 56.3 142.3 65.7 160 65.5C177.7 65.3 195.3 55.7 213.2 49C231 42.3 249 38.7 266.8 37.3C284.7 36 302.3 37 320 39.7C337.7 42.3 355.3 46.7 373.2 54C391 61.3 409 71.7 426.8 73.2C444.7 74.7 462.3 67.3 480 61.3C497.7 55.3 515.3 50.7 533.2 49.3C551 48 569 50 586.8 53C604.7 56 622.3 60 640 58C657.7 56 675.3 48 693.2 48.8C711 49.7 729 59.3 746.8 59.5C764.7 59.7 782.3 50.3 800 47.8C817.7 45.3 835.3 49.7 853.2 52.8C871 56 889 58 906.8 58C924.7 58 942.3 56 951.2 55L960 54L960 101L951.2 101C942.3 101 924.7 101 906.8 101C889 101 871 101 853.2 101C835.3 101 817.7 101 800 101C782.3 101 764.7 101 746.8 101C729 101 711 101 693.2 101C675.3 101 657.7 101 640 101C622.3 101 604.7 101 586.8 101C569 101 551 101 533.2 101C515.3 101 497.7 101 480 101C462.3 101 444.7 101 426.8 101C409 101 391 101 373.2 101C355.3 101 337.7 101 320 101C302.3 101 284.7 101 266.8 101C249 101 231 101 213.2 101C195.3 101 177.7 101 160 101C142.3 101 124.7 101 106.8 101C89 101 71 101 53.2 101C35.3 101 17.7 101 8.8 101L0 101Z" fill="#537ade"></path><path d="M0 53L8.8 53.3C17.7 53.7 35.3 54.3 53.2 58.2C71 62 89 69 106.8 72C124.7 75 142.3 74 160 76.2C177.7 78.3 195.3 83.7 213.2 84.2C231 84.7 249 80.3 266.8 79.7C284.7 79 302.3 82 320 84.2C337.7 86.3 355.3 87.7 373.2 83.5C391 79.3 409 69.7 426.8 65.5C444.7 61.3 462.3 62.7 480 63.3C497.7 64 515.3 64 533.2 64.5C551 65 569 66 586.8 69C604.7 72 622.3 77 640 79.7C657.7 82.3 675.3 82.7 693.2 82.7C711 82.7 729 82.3 746.8 77.2C764.7 72 782.3 62 800 63.3C817.7 64.7 835.3 77.3 853.2 79.8C871 82.3 889 74.7 906.8 71.2C924.7 67.7 942.3 68.3 951.2 68.7L960 69L960 101L951.2 101C942.3 101 924.7 101 906.8 101C889 101 871 101 853.2 101C835.3 101 817.7 101 800 101C782.3 101 764.7 101 746.8 101C729 101 711 101 693.2 101C675.3 101 657.7 101 640 101C622.3 101 604.7 101 586.8 101C569 101 551 101 533.2 101C515.3 101 497.7 101 480 101C462.3 101 444.7 101 426.8 101C409 101 391 101 373.2 101C355.3 101 337.7 101 320 101C302.3 101 284.7 101 266.8 101C249 101 231 101 213.2 101C195.3 101 177.7 101 160 101C142.3 101 124.7 101 106.8 101C89 101 71 101 53.2 101C35.3 101 17.7 101 8.8 101L0 101Z" fill="#45a5f4"></path><path d="M0 68L8.8 72.3C17.7 76.7 35.3 85.3 53.2 89.5C71 93.7 89 93.3 106.8 89.8C124.7 86.3 142.3 79.7 160 79.2C177.7 78.7 195.3 84.3 213.2 88C231 91.7 249 93.3 266.8 91.3C284.7 89.3 302.3 83.7 320 81.5C337.7 79.3 355.3 80.7 373.2 83.3C391 86 409 90 426.8 90.3C444.7 90.7 462.3 87.3 480 85.5C497.7 83.7 515.3 83.3 533.2 81.5C551 79.7 569 76.3 586.8 75C604.7 73.7 622.3 74.3 640 78C657.7 81.7 675.3 88.3 693.2 91C711 93.7 729 92.3 746.8 92.5C764.7 92.7 782.3 94.3 800 92.8C817.7 91.3 835.3 86.7 853.2 87C871 87.3 889 92.7 906.8 91.3C924.7 90 942.3 82 951.2 78L960 74L960 101L951.2 101C942.3 101 924.7 101 906.8 101C889 101 871 101 853.2 101C835.3 101 817.7 101 800 101C782.3 101 764.7 101 746.8 101C729 101 711 101 693.2 101C675.3 101 657.7 101 640 101C622.3 101 604.7 101 586.8 101C569 101 551 101 533.2 101C515.3 101 497.7 101 480 101C462.3 101 444.7 101 426.8 101C409 101 391 101 373.2 101C355.3 101 337.7 101 320 101C302.3 101 284.7 101 266.8 101C249 101 231 101 213.2 101C195.3 101 177.7 101 160 101C142.3 101 124.7 101 106.8 101C89 101 71 101 53.2 101C35.3 101 17.7 101 8.8 101L0 101Z" fill="#66ccff"></path></svg>